<svg width="20" height="20" viewBox="0 0 20 20" fill="none" xmlns="http://www.w3.org/2000/svg">
<path fill-rule="evenodd" clip-rule="evenodd" d="M10 20C15.5228 20 20 15.5228 20 10C20 4.47715 15.5228 0 10 0C4.47715 0 0 4.47715 0 10C0 15.5228 4.47715 20 10 20ZM14.5394 6.30643C14.6261 6.34368 14.7048 6.39827 14.7709 6.46704C14.8432 6.53575 14.9008 6.61914 14.9402 6.71196C14.9796 6.80478 15 6.90501 15 7.00634C15 7.10767 14.9796 7.2079 14.9402 7.30072C14.9008 7.39354 14.8432 7.47693 14.7709 7.54564L8.96469 13.533C8.89855 13.6017 8.81985 13.6563 8.73314 13.6936C8.64643 13.7308 8.55343 13.75 8.45949 13.75C8.36556 13.75 8.27256 13.7308 8.18585 13.6936C8.09914 13.6563 8.02044 13.6017 7.95429 13.533L5.22195 10.7154C5.15327 10.647 5.09833 10.5653 5.06027 10.475C5.0222 10.3847 5.00176 10.2875 5.00011 10.1891C4.99846 10.0906 5.01563 9.99279 5.05064 9.90118C5.08565 9.80957 5.13782 9.72596 5.20416 9.65514C5.2705 9.58432 5.34972 9.52767 5.4373 9.48842C5.52488 9.44917 5.61909 9.42809 5.71457 9.42638C5.81004 9.42468 5.90491 9.44239 5.99375 9.47849C6.08259 9.51459 6.16367 9.56839 6.23235 9.6368L8.45949 11.9407L13.7605 6.46704C13.8267 6.39827 13.9054 6.34368 13.9921 6.30643C14.0788 6.26918 14.1718 6.25 14.2657 6.25C14.3597 6.25 14.4527 6.26918 14.5394 6.30643Z" fill="black"/>
</svg>
