<svg width="20" height="30" viewBox="0 0 20 30" fill="none" xmlns="http://www.w3.org/2000/svg">
<path d="M9.99971 0C6.5515 0 3.74971 2.72603 3.74971 6.08102V15.8107C3.74971 19.1656 6.5515 21.8917 9.99971 21.8917C13.4479 21.8917 16.2497 19.1656 16.2497 15.8107V6.08102C16.2497 2.72603 13.4479 0 9.99971 0ZM0.846442 10.9458C0.401465 10.9391 -0.00690549 11.3364 8.85534e-05 11.7693V15.8233C8.85534e-05 20.9282 4.02925 25.1056 9.16675 25.5153V28.3785H5.83334C5.37297 28.3785 5.00009 28.7416 5.00009 29.1893C5.00009 29.6372 5.37327 30 5.83334 30H14.1667C14.6271 30 14.9999 29.6369 14.9999 29.1893C14.9999 28.7413 14.6267 28.3785 14.1667 28.3785H10.8333V25.5153C15.9707 25.1059 19.9999 20.9286 19.9999 15.8233V11.7693C20.006 11.3409 19.607 10.947 19.1667 10.947C18.7264 10.947 18.327 11.3409 18.3334 11.7693V15.8233C18.3334 20.3292 14.6312 23.9314 10.0001 23.9314C5.36899 23.9314 1.66676 20.3292 1.66676 15.8233V11.7693C1.67373 11.3449 1.28281 10.9524 0.846591 10.9458H0.846442Z" fill="white"/>
</svg>
