<svg width="20" height="18" viewBox="0 0 20 18" fill="none" xmlns="http://www.w3.org/2000/svg">
<path d="M11.871 0.134804L5.03221 5.61864C4.90328 5.7154 4.77412 5.74758 4.64518 5.74758L0.645107 5.7478C0.290255 5.7478 0 6.03808 0 6.39291V11.5543C0 11.9092 0.290272 12.1994 0.645107 12.1994H4.61281C4.77415 12.1994 4.90308 12.264 4.99984 12.3284L11.8386 17.8122C12.258 18.1349 12.871 17.8444 12.871 17.296V0.650798C12.9031 0.102437 12.2904 -0.187858 11.871 0.134615L11.871 0.134804Z" fill="black"/>
<path d="M15.9677 5.10257C15.7096 4.84447 15.3226 4.84447 15.0644 5.10257C14.8063 5.36066 14.8063 5.74767 15.0644 6.0058C15.8709 6.81225 16.2903 7.84463 16.2903 8.97355C16.2903 10.1027 15.8387 11.1349 15.0644 11.9413C14.8063 12.1994 14.8063 12.5864 15.0644 12.8445C15.1934 12.9735 15.3547 13.0381 15.516 13.0381C15.6774 13.0381 15.8387 12.9735 15.9676 12.8445C17 11.8122 17.5805 10.4252 17.5805 8.97361C17.5805 7.52205 16.9998 6.13483 15.9676 5.10268L15.9677 5.10257Z" fill="black"/>
<path d="M17.6774 3.39291C17.4193 3.13482 17.0323 3.13482 16.7741 3.39291C16.516 3.65101 16.516 4.03802 16.7741 4.29614C18.0322 5.55421 18.7097 7.19927 18.7097 8.97353C18.7097 10.7478 18.0322 12.3928 16.7741 13.6509C16.516 13.909 16.516 14.296 16.7741 14.5541C16.9031 14.6831 17.0644 14.7477 17.2257 14.7477C17.3871 14.7477 17.5484 14.6831 17.6773 14.5541C19.1935 13.0704 19.9999 11.0703 19.9999 8.97353C19.9999 6.8768 19.1935 4.87667 17.6773 3.39291H17.6774Z" fill="black"/>
</svg>
