<svg width="301" height="286" viewBox="0 0 301 286" fill="none" xmlns="http://www.w3.org/2000/svg">
<g clip-path="url(#clip0_7_10)">
<path d="M217.482 193.418C217.482 193.418 273.981 173.225 271.351 77.5196C271.351 77.5196 197.078 122.99 217.482 193.418Z" fill="#89C3AD"/>
<path d="M271.351 77.5196C271.351 77.5196 197.078 122.99 217.482 193.418L271.351 77.5196Z" fill="#679E8F"/>
<g style="mix-blend-mode:multiply">
<path d="M224.141 167.033C224.107 167.134 224.095 167.242 224.106 167.348C224.117 167.454 224.152 167.557 224.207 167.648C223.961 168.135 223.699 168.631 223.479 169.126C223.417 169.256 223.388 169.4 223.394 169.544C223.4 169.688 223.441 169.829 223.513 169.954C221.048 177.112 218.866 184.349 216.967 191.665C217.108 192.259 217.266 192.844 217.432 193.446C217.432 193.446 217.745 193.269 218.395 193.075C220.613 184.456 223.225 175.932 226.231 167.504C233.761 152.37 245.388 139.682 256.667 127.3C260.509 123.113 264.615 119.178 268.96 115.518L269.368 112.939C264.793 116.692 260.452 120.724 256.371 125.01C246.97 134.916 237.41 145.5 230.037 157.304C241.223 129.497 255.039 102.827 271.299 77.6578C270.888 77.8904 269.701 78.6707 267.723 80.0502C252.735 103.618 239.873 128.477 229.291 154.333C231.911 142.151 233.803 129.641 237.611 117.679C239.362 112.252 241.258 106.866 243.301 101.52C242.232 102.675 241.168 103.865 240.108 105.088C239.017 108.097 237.959 111.117 236.937 114.145C231.177 131.41 229.641 149.655 224.141 167.033Z" fill="#84C2AB"/>
</g>
<path d="M174.754 205.712C174.754 205.712 147.574 139.465 70.7099 158.78C70.7099 158.78 95.5477 227.374 174.754 205.712Z" fill="#94C7B6"/>
<path d="M174.754 205.712C174.754 205.712 147.574 139.465 70.7099 158.78L174.754 205.712Z" fill="#6A938E"/>
<g style="mix-blend-mode:multiply">
<path d="M154.418 203.426C160.101 204.592 165.868 205.301 171.664 205.546C152.86 199.175 134.579 191.117 115.948 184.169C106.42 180.778 97.1025 176.818 88.0471 172.309C82.5025 169.408 77.2061 166.053 72.212 162.28C71.4116 160.558 70.9237 159.311 70.768 158.921C76.3923 163.367 82.3987 167.306 88.7168 170.691C97.7519 175.253 107.078 179.212 116.635 182.541C133.963 189.029 150.977 196.499 168.415 202.643C148.389 189.351 130.398 173.016 112.851 156.582C113.937 156.773 115.031 156.981 116.085 157.233C134.301 174.158 153.055 190.844 174.009 204.089C174.578 205.094 174.754 205.712 174.754 205.712C172.857 206.198 170.951 206.667 169.036 207.12C164.553 206.872 160.278 206.071 155.919 205.427C146.838 204.038 137.88 202.212 128.875 200.65C118.872 198.935 108.844 197.213 98.9033 195.072C97.7947 194.264 96.7354 193.428 95.6739 192.549C106.706 195.008 117.932 196.966 129.079 198.86C137.523 200.391 145.953 201.973 154.418 203.426Z" fill="#84C2AB"/>
</g>
<path d="M261.29 187.603C254.566 214.372 260.684 242.925 272.16 267.512C273.254 269.829 269.792 271.809 268.689 269.475C256.715 243.93 250.535 214.347 257.506 186.633C258.12 184.111 261.969 185.196 261.346 187.702L261.29 187.603Z" fill="#6A938E"/>
<path d="M193.517 183.681C202.145 218.01 216.935 250.492 237.166 279.542C238.621 281.655 235.124 283.611 233.711 281.496C213.28 252.14 198.349 219.318 189.646 184.631C189.602 184.157 189.728 183.683 190.004 183.295C190.279 182.907 190.684 182.631 191.146 182.517C191.608 182.404 192.095 182.46 192.52 182.676C192.944 182.891 193.277 183.252 193.458 183.692L193.517 183.681Z" fill="#6A938E"/>
<path d="M124.79 156.767C175.302 183.61 203.905 234.177 231.65 281.923C231.91 282.381 231.977 282.924 231.836 283.432C231.696 283.94 231.36 284.371 230.902 284.63C230.443 284.889 229.901 284.955 229.394 284.814C228.886 284.673 228.455 284.336 228.196 283.877C200.795 236.74 172.669 186.709 122.784 160.207C120.511 158.992 122.527 155.568 124.79 156.767V156.767Z" fill="#89C3AD"/>
<path d="M156.429 246.329C178.718 258.863 192.623 281.641 206.59 302.187C208.029 304.309 204.549 306.256 203.135 304.141C189.654 284.147 176.01 261.982 154.423 249.769C153.967 249.503 153.635 249.065 153.5 248.554C153.366 248.043 153.44 247.499 153.706 247.043C153.972 246.587 154.408 246.256 154.919 246.122C155.429 245.988 155.973 246.063 156.429 246.329V246.329Z" fill="#6A938E"/>
<path d="M214.006 103.28C216.84 169.097 229.139 235.562 257.573 295.467C258.674 297.759 255.212 299.739 254.119 297.421C225.353 236.855 212.85 169.875 210.024 103.227C209.916 100.656 213.882 100.719 214.006 103.28Z" fill="#84C2AB"/>
<path d="M281.554 181.469C281.554 181.469 334.64 150.636 309.1 87.4413C309.1 87.4413 253.731 116.542 281.554 181.469Z" fill="#94C7B6"/>
<path d="M281.554 181.469C281.554 181.469 334.64 150.636 309.1 87.4413L281.554 181.469Z" fill="#6A938E"/>
<g style="mix-blend-mode:multiply">
<path d="M281.117 163.882C280.796 168.856 280.881 173.848 281.374 178.809C284.517 162.024 289.226 145.551 292.871 128.809C294.624 120.298 296.886 111.901 299.646 103.663C301.453 98.6058 303.681 93.7086 306.304 89.0232C307.721 88.1126 308.675 87.5729 309.018 87.4878C305.89 92.8021 303.233 98.3803 301.077 104.159C298.284 112.382 296.027 120.778 294.319 129.295C290.871 144.773 286.609 160.232 283.484 175.745C292.474 157.089 304.132 139.925 316.025 123.063C315.991 124.039 315.938 124.982 315.876 125.909C303.615 143.349 291.638 161.215 282.865 180.64C282.01 181.124 281.549 181.384 281.549 181.384C280.869 179.798 280.237 178.219 279.653 176.65C279.364 172.877 279.505 169.057 279.522 165.285C279.572 157.427 280.112 149.553 280.366 141.711C280.684 133.136 280.92 124.303 281.562 115.61C282.11 114.583 282.611 113.625 283.295 112.608C282.485 122.309 282.17 132.078 281.885 141.786C281.666 149.153 281.303 156.535 281.117 163.882Z" fill="#84C2AB"/>
</g>
<path d="M174.519 167.677C174.519 167.677 202.413 114.339 141.526 81.5554C141.526 81.5554 109.754 136.826 174.519 167.677Z" fill="#85B8A7"/>
<path d="M141.526 81.5554C141.526 81.5554 109.803 136.798 174.519 167.677L141.526 81.5554Z" fill="#AED7C9"/>
<g style="mix-blend-mode:multiply">
<path d="M148.256 126.965C152.077 135.026 156.73 142.637 161.234 150.333C164.459 156.293 168.529 161.756 173.318 166.551C173.476 166.831 173.625 167.095 173.784 167.375L174.453 167.714C174.453 167.714 174.942 166.85 175.56 165.37C165.181 143.158 159.901 118.91 160.107 94.4032C159.529 93.8816 158.952 93.36 158.342 92.857C158.06 114.552 161.924 136.106 169.725 156.361C168.042 152.963 166.491 149.491 164.939 146.019C160.458 135.831 156.488 125.397 152.777 114.882C149.186 104.821 145.942 94.6728 143.047 84.4359C142.837 83.6415 142.6 82.8399 142.364 82.0384L141.526 81.5554C141.526 81.5554 141.255 82.0351 140.818 82.9131C140.985 83.2097 140.998 83.6158 141.1 83.9496C143.949 94.3216 147.314 104.532 150.862 114.682C154.677 125.573 158.756 136.315 163.361 146.759C165.226 151.055 167.231 155.444 169.357 159.548C166.418 155.538 163.735 151.346 161.324 146.998C157.041 139.656 152.706 132.299 149.092 124.644C144.341 114.588 140.136 104.283 136.495 93.7746C136.222 94.7121 135.951 95.6918 135.699 96.7044C139.42 107.083 143.616 117.15 148.256 126.965Z" fill="#84C2AB"/>
</g>
<path d="M226.77 102.737C226.77 102.737 276.95 69.5678 239.34 11.4826C239.34 11.4826 184.87 44.5545 226.77 102.737Z" fill="#85B8A7"/>
<path d="M239.34 11.4826C239.34 11.4826 184.87 44.5545 226.77 102.737L239.34 11.4826Z" fill="#AED7C9"/>
<g style="mix-blend-mode:multiply">
<path d="M223.391 54.4966C222.844 63.3962 223.264 72.3149 223.522 81.2163C223.455 87.9911 224.39 94.7398 226.295 101.244C226.32 101.556 226.37 101.876 226.378 102.197C226.386 102.519 226.621 102.625 226.742 102.84C226.863 103.054 227.548 102.384 228.781 101.338C230.401 76.8694 237.465 53.0794 249.455 31.7068C249.188 30.9661 248.93 30.2419 248.647 29.5105C237.965 48.3686 230.971 69.0941 228.037 90.5804C228.222 86.8002 228.517 83.023 228.822 79.2621C229.797 68.1631 231.341 57.1115 233.142 46.1316C234.849 35.5972 236.862 25.1065 239.262 14.7235L239.794 12.2477C239.636 11.9676 239.487 11.7039 239.319 11.4074C239.319 11.4074 238.842 11.6772 238.042 12.2599L237.792 13.3149C235.387 23.9185 233.347 34.402 231.585 44.9901C229.692 56.3474 228.133 67.7557 227.068 79.2322C226.613 83.8395 226.267 88.6023 226.155 93.3194C225.519 88.3924 225.186 83.4314 225.157 78.4644C224.917 69.9011 224.692 61.481 225.2 52.9731C225.885 41.8748 227.172 30.8228 229.056 19.866C228.354 20.5454 227.671 21.2578 226.942 22.0404C225.206 32.8305 224.019 43.7455 223.391 54.4966Z" fill="#84C2AB"/>
</g>
<path d="M148.215 273.42C148.215 273.42 83.4772 274.327 66.9543 216.21C66.9543 216.21 124.772 206.103 148.215 273.42Z" fill="#AEDDCD"/>
<path d="M66.9543 216.21C66.9543 216.21 124.772 206.103 148.215 273.42L66.9543 216.21Z" fill="#84C4AC"/>
<g style="mix-blend-mode:multiply">
<path d="M83.8507 223.356C93.2649 228.905 102.778 234.398 111.772 240.511C121.906 247.533 131.327 255.535 139.899 264.4C132.305 254.45 123.783 245.245 114.447 236.91C106.148 229.338 97.0934 221.585 86.854 216.611C88.7407 216.914 90.7163 217.297 92.7664 217.812C100.443 222.646 107.643 228.201 114.267 234.402C127.071 245.436 138.271 258.207 147.541 272.344C147.541 272.344 147.541 272.344 147.587 272.426C147.634 272.509 147.844 272.651 147.994 272.762L148.231 273.411C148.231 273.411 147.41 273.418 146.008 273.32L145.906 273.138C135.031 264.24 121.774 259.037 108.962 253.431C99.8617 249.372 90.4904 245.952 80.9163 243.197C80.3116 242.473 79.7211 241.698 79.1751 240.963C89.036 243.733 98.7108 247.13 108.14 251.134C118.696 255.515 129.662 259.969 139.327 266.116C130.602 257.106 121.052 248.936 110.802 241.712C102.767 236.144 94.1918 231.273 85.7723 226.292C79.7888 222.739 73.8431 219.099 67.6732 215.869C68.3043 215.795 69.3648 215.673 70.7816 215.568C75.1691 218.219 79.5121 220.829 83.8507 223.356Z" fill="#84C2AB"/>
</g>
<path d="M275.778 199.09C280.647 195.177 284.253 189.912 286.146 183.955C288.039 177.998 288.134 171.612 286.421 165.596C284.707 159.58 281.26 154.2 276.511 150.13C271.762 146.059 265.921 143.479 259.719 142.71C253.517 141.942 247.228 143.02 241.64 145.81C236.051 148.599 231.41 152.977 228.298 158.395C225.185 163.813 223.738 170.032 224.139 176.273C224.539 182.515 226.769 188.502 230.549 193.486C233.148 196.835 236.383 199.637 240.066 201.732C243.75 203.827 247.81 205.173 252.012 205.694C256.215 206.215 260.478 205.899 264.557 204.766C268.635 203.633 272.449 201.704 275.778 199.09V199.09Z" fill="#F59982"/>
<path d="M233.072 187.275C233.072 187.275 248.922 150.036 282.824 171.007C282.824 171.007 276.466 198.157 262.247 201.502C248.027 204.848 233.072 187.275 233.072 187.275Z" fill="#DF444A"/>
<path d="M230.549 193.486C226.744 188.406 224.541 182.306 224.222 175.969C223.903 169.633 225.482 163.347 228.757 157.919C234.388 168.718 243.926 185.159 253.891 193.985C253.891 193.985 266.801 169.284 281.226 152.751C281.604 153.189 281.999 153.618 282.354 154.092C287.393 160.987 289.53 169.582 288.305 178.029C287.081 186.476 282.592 194.1 275.804 199.262C269.017 204.423 260.473 206.71 252.009 205.63C243.546 204.55 235.84 200.189 230.549 193.486Z" fill="#FBCAA9"/>
<path d="M265.58 175.802C259.443 184.945 254.706 194.955 251.524 205.501C250.961 205.428 250.371 205.305 249.815 205.206C250.753 201.731 251.923 198.323 253.317 195.005C244.361 183.433 236.492 171.095 228.147 159.221C228.44 158.664 228.766 158.088 229.101 157.529C237.471 169.41 245.303 181.682 254.156 193.225C256.609 187.707 259.432 182.36 262.606 177.224C266.723 170.407 271.212 163.824 276.054 157.503C277.505 155.584 279.06 153.746 280.713 151.997C281.091 152.436 281.469 152.874 281.831 153.322C280.604 154.647 279.466 156.051 278.371 157.454C273.743 163.307 269.471 169.434 265.58 175.802Z" fill="#AA333C"/>
<path d="M165.47 201.851C174.575 217.949 193.686 224.364 208.162 216.175C222.639 207.987 226.987 188.302 217.881 172.205C208.776 156.107 189.649 149.702 175.188 157.881C160.728 166.06 156.364 185.753 165.47 201.851Z" fill="#C0474E"/>
<path d="M216.918 183.515C216.918 183.515 205.873 215.121 195.934 215.132C185.995 215.143 180.644 199.618 180.644 199.618C181.229 191.854 183.028 184.231 185.976 177.029C185.976 177.029 211.23 175.532 216.918 183.515Z" fill="#FAA892"/>
<path d="M167.145 164.736C173.371 181.29 182.6 196.553 194.368 209.754C204.229 196.477 210.339 176.798 213.156 165.656C214.944 167.645 216.515 169.818 217.844 172.139C226.949 188.237 222.585 207.93 208.125 216.109C193.665 224.288 174.575 217.949 165.47 201.851C158.358 189.279 159.485 174.571 167.145 164.736Z" fill="#E39799"/>
<path d="M185.034 199.549C180.718 193.709 176.818 187.571 173.365 181.183C170.661 176.057 169.418 170.366 166.921 165.146C167.317 164.617 167.713 164.089 168.202 163.572C170.738 168.401 172.025 173.785 174.248 178.791C177.179 184.81 180.673 190.538 184.684 195.897C187.824 200.45 191.209 204.821 194.553 209.236C203.097 195.704 207.205 180.049 212.731 165.135C213.171 165.605 213.652 166.072 214.058 166.56C208.578 181.556 204.342 197.175 195.631 210.758L196.667 212.129C198.34 214.358 199.964 216.615 201.659 218.766C201.016 218.934 200.382 219.119 199.743 219.219C199.127 218.437 198.509 217.612 197.916 216.795C193.655 211.027 189.272 205.351 185.034 199.549Z" fill="#AA333C"/>
<path d="M216.185 130.472C234.275 129.939 248.441 113.14 247.821 93.004C247.201 72.8677 232.007 56.9083 213.926 57.4577C195.845 58.0071 181.67 74.7898 182.29 94.9261C182.91 115.062 198.106 131.064 216.185 130.472Z" fill="#DF444A"/>
<path d="M185.823 92.6884C185.823 92.6884 198.433 69.7226 232.348 96.1671L206.62 118.245L185.823 92.6884Z" fill="#FDB396"/>
<path d="M182.309 94.959C182.114 89.3993 183.087 83.8622 185.166 78.7059C191.28 90.4315 198.498 101.547 206.723 111.901C206.723 111.901 231.267 98.6707 242.184 73.7483C245.693 79.5742 247.635 86.2082 247.821 93.004C248.403 113.227 234.303 129.989 216.185 130.472C198.067 130.956 182.94 115.154 182.309 94.959Z" fill="#F59982"/>
<path d="M223.13 100.946C218.044 105.29 212.578 109.168 206.798 112.533C201.836 115.231 196.542 117.267 191.051 118.591C190.645 118.103 190.255 117.606 189.872 117.083C195.113 115.739 200.192 113.828 205.02 111.386C200.127 105.362 195.695 98.9775 191.762 92.2865C189.445 88.5735 186.742 84.6003 184.52 80.4418C184.778 79.7085 185.072 78.9988 185.447 78.2426C187.775 82.8194 190.789 87.226 193.337 91.3087C197.268 98.0685 201.735 104.502 206.695 110.547C212.487 107.148 217.941 103.203 222.983 98.7673C231.185 91.6924 236.792 82.2574 241.654 72.6566C241.989 73.2498 242.325 73.8429 242.669 74.4526C237.507 84.2889 231.614 93.6028 223.13 100.946Z" fill="#A5342B"/>
<path d="M131.188 187.924C127.288 189.711 123.067 190.69 118.777 190.8C114.488 190.91 110.219 190.149 106.229 188.564C102.238 186.979 98.6092 184.602 95.5597 181.576C92.5102 178.551 90.1035 174.939 88.4849 170.96C86.8663 166.98 86.0692 162.715 86.1417 158.421C86.2141 154.127 87.1546 149.894 88.9065 145.976C90.6584 142.058 93.1854 138.536 96.3351 135.624C99.4849 132.712 103.192 130.469 107.233 129.03C111.107 127.417 115.262 126.589 119.459 126.593C123.656 126.597 127.812 127.433 131.687 129.052C135.562 130.672 139.079 133.043 142.035 136.029C144.992 139.014 147.328 142.556 148.911 146.449C150.493 150.341 151.29 154.508 151.256 158.709C151.221 162.909 150.355 167.06 148.708 170.921C147.062 174.783 144.666 178.279 141.661 181.207C138.656 184.136 135.1 186.438 131.199 187.983L131.188 187.924Z" fill="#F59982"/>
<path d="M142.781 145.156C142.781 145.156 102.721 139.825 103.35 179.747C103.35 179.747 129.928 188.115 140.091 177.56C150.254 167.005 142.781 145.156 142.781 145.156Z" fill="#DF444A"/>
<path d="M149.355 146.222C146.93 140.352 142.806 135.341 137.513 131.835C132.221 128.328 126.003 126.486 119.66 126.546C126.097 136.889 135.372 153.478 137.927 166.518C137.927 166.518 110.135 165.1 88.5212 169.04C88.7021 169.59 88.883 170.14 89.0968 170.672C92.5117 178.44 98.8169 184.573 106.672 187.768C114.528 190.963 123.315 190.968 131.165 187.782C139.016 184.596 145.311 178.47 148.714 170.705C152.117 162.941 152.359 154.151 149.388 146.203L149.355 146.222Z" fill="#FBCAA9"/>
<path d="M116.381 167.352C127.374 166.72 138.401 167.748 149.092 170.402C149.326 169.856 149.509 169.296 149.717 168.744C146.244 167.795 142.714 167.068 139.149 166.566C133.796 152.956 127.16 139.92 121.079 126.636C120.434 126.609 119.789 126.582 119.146 126.598C125.092 139.872 131.674 152.852 137.072 166.349C131.063 165.664 125.015 165.386 118.97 165.518C111.035 165.611 103.112 166.136 95.2356 167.09C92.8497 167.365 90.4797 167.762 88.1347 168.28C88.3156 168.83 88.5129 169.371 88.7196 169.928C90.4611 169.552 92.2514 169.3 94.0439 169.091C101.447 168.062 108.907 167.482 116.381 167.352V167.352Z" fill="#AA333C"/>
<path d="M133.237 266.711C148.892 276.538 168.745 273.094 177.575 259.031C186.405 244.967 180.886 225.536 165.247 215.7C149.608 205.864 129.746 209.292 120.909 223.381C112.072 237.47 117.589 256.859 133.237 266.711Z" fill="#C0474E"/>
<path d="M169.756 226.09C169.756 226.09 175.098 259.105 166.331 263.912C157.563 268.719 145.534 257.472 145.534 257.472C142.386 250.378 140.376 242.833 139.576 235.114C139.576 235.114 160.964 221.755 169.756 226.09Z" fill="#FAA892"/>
<path d="M117.153 233.248C130.482 244.869 145.843 253.922 162.46 259.947C164.828 243.558 160.789 223.289 158.03 212.192C160.55 213.094 162.967 214.265 165.238 215.684C180.877 225.519 186.403 244.925 177.566 259.014C168.729 273.104 148.892 276.538 133.228 266.695C121.028 259.024 115.021 245.524 117.153 233.248Z" fill="#E39799"/>
<path d="M149.346 255.381C142.758 252.301 136.398 248.755 130.314 244.768C125.5 241.554 121.637 237.106 117.025 233.712C117.135 233.062 117.22 232.406 117.365 231.78C121.892 234.83 125.577 238.966 129.859 242.351C135.3 246.24 141.087 249.621 147.145 252.451C152.075 254.947 157.127 257.2 162.173 259.479C163.198 243.479 159.438 227.772 157.208 212.005C157.828 212.219 158.456 212.408 159.07 212.648C161.46 228.39 165.163 244.151 164.046 260.18L165.624 260.897C168.148 262.058 170.641 263.279 173.154 264.381C172.669 264.829 172.201 265.268 171.714 265.674C170.786 265.263 169.859 264.852 168.848 264.446C162.382 261.383 155.821 258.461 149.346 255.381Z" fill="#AA333C"/>
<path d="M188.917 300.31C188.917 300.31 136.327 329.295 66.3322 264.017C66.3322 264.017 149.559 238.406 188.917 300.31Z" fill="#89C3AD"/>
<path d="M66.3322 264.017C66.3322 264.017 149.559 238.406 188.917 300.31L66.3322 264.017Z" fill="#679E8F"/>
<g style="mix-blend-mode:multiply">
<path d="M164.72 287.898C164.82 287.939 164.91 288 164.984 288.078C165.058 288.156 165.115 288.249 165.15 288.351L166.731 288.805C166.87 288.838 166.997 288.907 167.102 289.004C167.206 289.101 167.284 289.224 167.327 289.359C174.319 292.277 181.177 295.444 187.902 298.861C188.2 299.388 188.498 299.915 188.949 300.443C188.949 300.443 188.636 300.62 188.061 300.946C180.119 296.913 172.001 293.233 163.707 289.907C147.389 285.588 130.155 285.832 113.414 286.101C107.711 286.171 102.018 286.608 96.372 287.412C95.6373 286.957 94.919 286.494 94.1656 286.006C100.007 285.072 105.9 284.491 111.812 284.267C125.461 283.789 139.722 283.704 153.429 285.825C125.203 275.832 96.0939 268.55 66.4961 264.076C66.9633 263.943 68.3649 263.541 70.6558 262.985C98.2576 267.356 125.419 274.176 151.82 283.364C140.829 277.293 130.304 270.393 118.808 265.348C113.569 263.048 108.276 260.894 102.929 258.888C104.503 258.868 106.102 258.855 107.72 258.875C110.717 260.079 113.687 261.299 116.63 262.534C133.323 269.512 148.078 280.435 164.72 287.898Z" fill="#84C2AB"/>
</g>
<path d="M288.662 241.714C288.662 241.714 266.183 167.654 330.38 131.972C330.38 131.972 355.542 202.253 288.662 241.714Z" fill="#A4CABD"/>
<path d="M288.662 241.714C288.662 241.714 266.183 167.654 330.38 131.972L288.662 241.714Z" fill="#AEDDCD"/>
<g style="mix-blend-mode:multiply">
<path d="M300.017 227.201C298.784 229.051 297.478 230.812 296.13 232.575C295.621 233.211 294.715 234.18 293.796 235.244C293.06 236.552 292.349 237.867 291.652 239.131C291.606 239.314 291.498 239.476 291.346 239.587C291.224 239.807 291.091 240.02 290.947 240.226C290.191 240.654 289.506 241.172 288.742 241.626C288.742 241.626 288.556 241.296 288.441 240.556L289.14 239.487C289.339 238.489 289.72 237.536 290.264 236.676C294.639 218.499 293.823 199.322 298.736 181.058C302.298 168.536 306.932 156.347 312.587 144.624C313.752 143.574 314.968 142.538 316.227 141.5C309.915 154.401 304.686 167.805 300.591 181.575C295.933 198.215 296.439 215.654 293.112 232.499C300.815 218.246 306.218 203.076 311.723 187.588C318.223 169.252 324.12 150.693 330.051 132.158L330.38 131.972C330.38 131.972 330.737 132.988 331.263 134.8C325.541 152.63 319.835 170.45 313.637 188.093C309.354 200.909 304.384 213.485 298.749 225.765C303.271 218.771 307.404 211.533 311.13 204.082C318.375 190.477 326.332 177.264 334.969 164.5C334.953 165.661 334.913 166.858 334.825 168.083C327.882 178.534 321.253 189.157 315.281 200.212C310.395 209.348 305.715 218.541 300.017 227.201Z" fill="#84C2AB"/>
</g>
<path d="M255.688 280.809C255.688 280.809 190.969 281.75 174.481 223.656C174.481 223.656 232.208 213.426 255.688 280.809Z" fill="#AEDDCD"/>
<path d="M174.481 223.656C174.481 223.656 232.208 213.426 255.688 280.809L174.481 223.656Z" fill="#84C4AC"/>
<g style="mix-blend-mode:multiply">
<path d="M191.324 230.745C200.755 236.285 210.267 241.778 219.262 247.891C229.384 254.919 238.801 262.914 247.379 271.764C239.773 261.823 231.245 252.621 221.911 244.283C213.621 236.728 204.567 228.974 194.318 223.984C196.221 224.278 198.19 224.687 200.23 225.185C207.907 230.019 215.107 235.574 221.731 241.775C234.538 252.814 245.741 265.591 255.014 279.733C255.098 279.882 255.297 279.965 255.421 280.069C255.545 280.173 255.644 280.464 255.667 280.734C255.689 281.004 254.846 280.742 253.444 280.643C253.404 280.587 253.369 280.526 253.341 280.462C242.441 271.556 229.194 266.37 216.398 260.755C207.294 256.693 197.917 253.276 188.336 250.53C187.748 249.797 187.141 249.031 186.595 248.296C196.445 251.119 206.104 254.576 215.51 258.647C226.066 263.029 237.032 267.482 246.753 273.728C238.028 264.718 228.477 256.548 218.227 249.324C210.199 243.731 201.624 238.859 193.205 233.879C187.231 230.342 181.259 226.695 175.099 223.481C175.721 223.39 176.781 223.269 178.207 223.18C182.624 225.575 186.967 228.186 191.324 230.745Z" fill="#84C2AB"/>
</g>
<path d="M258.044 294.418C258.044 294.418 308.159 261.134 270.456 203.079C270.456 203.079 216.034 236.233 258.044 294.418Z" fill="#85B8A7"/>
<path d="M270.456 203.079C270.456 203.079 216.034 236.233 258.044 294.418L270.456 203.079Z" fill="#AED7C9"/>
<g style="mix-blend-mode:multiply">
<path d="M254.559 246.107C254.075 255.08 254.474 263.923 254.732 272.825C254.683 279.601 255.632 286.348 257.548 292.85C257.556 293.172 257.606 293.491 257.614 293.813C257.623 294.134 257.857 294.241 257.978 294.455C258.099 294.669 258.784 293.999 260.024 292.928C261.575 268.476 268.585 244.69 280.538 223.321C280.271 222.581 280.014 221.857 279.721 221.109C269.089 239.997 262.158 260.747 259.301 282.245C259.46 278.458 259.756 274.681 260.07 270.936C261.018 259.83 262.562 248.779 264.338 237.791C266.045 227.257 268.042 216.776 270.449 206.367C270.644 205.56 270.814 204.747 270.981 203.891C270.822 203.611 270.673 203.347 270.506 203.051C270.506 203.051 270.028 203.321 269.229 203.903L268.979 204.958C266.515 215.421 264.539 225.977 262.786 236.582C260.91 247.93 259.367 259.329 258.269 270.824C257.814 275.431 257.486 280.227 257.392 284.935C256.734 280.007 256.392 275.043 256.368 270.073C256.111 261.519 255.877 253.082 256.368 244.584C257.059 233.473 258.354 222.409 260.247 211.441C259.562 212.111 258.863 212.833 258.133 213.616C256.349 224.434 255.187 235.356 254.559 246.107Z" fill="#84C2AB"/>
</g>
</g>
<defs>
<clipPath id="clip0_7_10">
<rect width="298.298" height="258.051" fill="white" transform="matrix(-0.870404 0.492338 0.492338 0.870404 259.64 0)"/>
</clipPath>
</defs>
</svg>
