<svg width="300" height="306" viewBox="0 0 300 306" fill="none" xmlns="http://www.w3.org/2000/svg">
<mask id="mask0_7_70" style="mask-type:alpha" maskUnits="userSpaceOnUse" x="0" y="0" width="300" height="306">
<rect width="300" height="306" fill="white"/>
</mask>
<g mask="url(#mask0_7_70)">
<path d="M45.0541 64.5452C45.0541 64.5452 24.2209 92.6464 56.4554 138.152C56.4554 138.152 77.7201 92.044 45.0541 64.5452Z" fill="#89C3AD"/>
<path d="M56.4554 138.152C56.4554 138.152 77.7201 92.044 45.0541 64.5452L56.4554 138.152Z" fill="#679E8F"/>
<g style="mix-blend-mode:multiply">
<path d="M50.3643 79.4848C50.3481 79.4247 50.3191 79.3688 50.2792 79.3211C50.2394 79.2733 50.1896 79.2347 50.1334 79.208C50.0949 78.8925 50.0613 78.5671 50.008 78.2565C49.9958 78.1732 49.9635 78.0941 49.9139 78.0261C49.8643 77.9581 49.7988 77.9033 49.7232 77.8662C48.6018 73.5997 47.3175 69.3868 45.8704 65.2276C45.6099 64.9853 45.3444 64.7529 45.069 64.5154C45.069 64.5154 44.9748 64.7024 44.7225 65.0072C46.437 69.9015 47.9294 74.8773 49.1997 79.9345C50.4482 89.7066 48.9211 99.6228 47.4638 109.278C46.9574 112.551 46.2417 115.789 45.3213 118.97L45.9581 120.352C46.9597 117.051 47.7579 113.691 48.3482 110.291C49.6968 102.444 50.9035 94.2175 50.6557 86.1095C54.2338 103.206 56.1693 120.604 56.436 138.068C56.5599 137.822 56.8825 137.059 57.394 135.75C57.0296 119.474 55.2172 103.262 51.9783 87.3063C54.6502 94.0567 57.7808 100.73 59.8062 107.759C60.7138 110.955 61.5376 114.179 62.2775 117.431C62.4214 116.525 62.5522 115.604 62.6699 114.668C62.2249 112.856 61.7602 111.051 61.2757 109.252C58.4807 99.0216 53.322 89.6859 50.3643 79.4848Z" fill="#84C2AB"/>
</g>
<path d="M61.7721 44.735C61.7721 44.735 96.3677 68.0111 127.348 33.7317C127.348 33.7317 93.1279 8.55925 61.7721 44.735Z" fill="#94C7B6"/>
<path d="M61.7721 44.735C61.7721 44.735 96.3677 68.0111 127.348 33.7317L61.7721 44.735Z" fill="#6A938E"/>
<g style="mix-blend-mode:multiply">
<path d="M72.3612 39.248C69.2313 40.5264 66.2088 42.053 63.3225 43.8132C74.4911 40.8022 85.9525 38.7777 97.2236 36.1022C102.936 34.6549 108.73 33.5521 114.574 32.7999C118.199 32.4075 121.849 32.315 125.489 32.5233C126.433 33.098 127.073 33.5435 127.275 33.6821C123.112 33.3522 118.929 33.392 114.774 33.801C108.921 34.5207 103.124 35.6271 97.4179 37.1131C86.9262 39.589 76.2686 41.4878 65.8354 44.166C79.8347 44.111 93.8328 46.19 107.648 48.4606C107.061 48.72 106.463 48.9744 105.871 49.1943C91.5731 46.9025 77.0918 44.9009 62.6578 45.2798C62.0573 44.9773 61.7721 44.7349 61.7721 44.7349C62.5336 43.8847 63.305 43.0394 64.0863 42.1991C66.3379 40.8655 68.6674 39.8674 70.9873 38.7657C75.8344 36.494 80.7646 34.4739 85.631 32.3106C91.0306 29.8977 96.445 27.4799 101.952 25.294C102.751 25.3261 103.534 25.3877 104.333 25.469C98.1938 27.855 92.123 30.5467 86.1114 33.2436C81.5264 35.2402 76.9316 37.2071 72.3612 39.248Z" fill="#84C2AB"/>
</g>
<path d="M25.7169 81.5666C20.3137 66.4195 8.11335 54.573 -5.39884 46.3843C-6.67824 45.6164 -5.64202 43.5349 -4.35278 44.3078C9.71062 52.7988 22.2743 65.1245 27.8633 80.8093C28.3817 82.2303 26.1664 82.9528 25.6578 81.5368L25.7169 81.5666Z" fill="#6A938E"/>
<path d="M59.4832 61.3253C39.2286 44.9907 16.3794 31.4443 -7.94981 21.3469C-9.71044 20.6081 -8.64682 18.528 -6.90871 19.2802C17.6695 29.4875 40.7506 43.18 61.2079 59.6894C61.4462 59.9364 61.5891 60.2328 61.6106 60.5248C61.6322 60.8167 61.531 61.0848 61.3254 61.2801C61.1198 61.4755 60.8236 61.5852 60.4905 61.5892C60.1575 61.5933 59.8098 61.4914 59.5107 61.3022L59.4832 61.3253Z" fill="#6A938E"/>
<path d="M101.688 52.1826C62.4401 52.4867 24.8822 33.5669 -10.9841 15.9188C-11.3248 15.7471 -11.5968 15.4736 -11.7402 15.1584C-11.8836 14.8432 -11.8865 14.5122 -11.7485 14.2381C-11.6104 13.964 -11.3426 13.7694 -11.004 13.697C-10.6654 13.6246 -10.2837 13.6804 -9.94295 13.8521C25.4705 31.2721 62.536 50.0425 101.293 49.738C103.062 49.7285 103.445 52.1669 101.688 52.1826V52.1826Z" fill="#89C3AD"/>
<path d="M57.3239 19.0262C38.4016 18.1313 19.3349 9.10635 1.31575 1.36182C-0.543287 0.561058 0.516139 -1.50875 2.35686 -0.704881C19.8284 6.8625 38.4471 15.6124 56.8093 16.5213C57.2016 16.5455 57.6049 16.7006 57.9305 16.9526C58.2562 17.2045 58.4775 17.5327 58.5457 17.8649C58.6139 18.1971 58.5235 18.506 58.2944 18.7238C58.0653 18.9416 57.7161 19.0504 57.3239 19.0262V19.0262Z" fill="#6A938E"/>
<path d="M75.8972 107.08C53.2329 76.1178 25.7743 47.9107 -7.37716 28.1136C-8.65168 27.3606 -7.61546 25.2791 -6.33606 26.0469C27.1894 46.0571 54.9136 74.4473 77.843 105.814C78.7268 107.024 76.7859 108.28 75.8972 107.08Z" fill="#84C2AB"/>
<path d="M17.8863 91.1087C17.8863 91.1087 2.14819 123.257 34.9621 145.586C34.9621 145.586 52.3661 113.537 17.8863 91.1087Z" fill="#94C7B6"/>
<path d="M17.8863 91.1085C17.8863 91.1085 2.14818 123.257 34.9621 145.586L17.8863 91.1085Z" fill="#6A938E"/>
<g style="mix-blend-mode:multiply">
<path d="M23.7872 99.4857C22.3337 96.9724 20.6772 94.5821 18.8341 92.3388C22.7413 101.488 25.7898 110.995 29.4403 120.286C31.3446 124.977 32.9653 129.778 34.2936 134.663C35.0541 137.699 35.5596 140.793 35.8049 143.913C35.4129 144.814 35.1253 145.385 34.9869 145.537C34.7825 141.949 34.2649 138.385 33.4402 134.887C32.1325 129.998 30.5097 125.199 28.5819 120.52C25.245 111.905 22.308 103.034 18.8032 94.5072C20.4842 106.459 20.3902 118.553 20.0844 130.577C19.7851 130.094 19.5055 129.62 19.2358 129.15C19.5328 116.727 19.5541 104.189 17.5192 91.9355C17.777 91.4238 17.9158 91.1482 17.9158 91.1482C18.7587 91.6962 19.5754 92.2557 20.3657 92.8266C21.7261 94.5607 22.8938 96.4568 24.1061 98.289C26.6238 102.111 28.9093 106.101 31.3234 109.982C33.9433 114.238 36.6862 118.594 39.1874 123.013C39.2545 123.688 39.3217 124.314 39.3196 125.029C36.5735 120.067 33.5658 115.233 30.5629 110.438C28.2862 106.799 26.0738 103.105 23.7872 99.4857Z" fill="#84C2AB"/>
</g>
<path d="M74.1903 63.0826C74.1903 63.0826 77.9346 97.9629 118.031 94.1005C118.031 94.1005 115.54 57.026 74.1903 63.0826Z" fill="#85B8A7"/>
<path d="M118.031 94.1006C118.031 94.1006 115.525 57.0557 74.1903 63.0827L118.031 94.1006Z" fill="#AED7C9"/>
<g style="mix-blend-mode:multiply">
<path d="M100.081 74.2866C95.6228 71.6213 90.9068 69.443 86.2355 67.1762C82.7452 65.3345 79.0067 64.0081 75.1362 63.2384C74.9689 63.1541 74.8114 63.0747 74.644 62.9904L74.2101 63.0433C74.2101 63.0433 74.2528 63.62 74.4325 64.5373C86.6446 71.9312 97.0465 81.9648 104.875 93.9019C105.323 93.9674 105.772 94.0328 106.23 94.0786C99.3478 83.4788 90.5035 74.291 80.1729 67.0095C82.0872 68.1096 83.9619 69.2883 85.8366 70.4671C91.3029 73.9488 96.6009 77.7158 101.8 81.6058C106.794 85.3143 111.648 89.1785 116.362 93.1984C116.721 93.5149 117.095 93.8265 117.469 94.1382L118.031 94.1005C118.031 94.1005 118.007 93.7801 117.935 93.2131C117.757 93.1238 117.62 92.9312 117.463 92.8026C112.727 88.7022 107.794 84.8476 102.792 81.0815C97.4211 77.0432 91.9707 73.1624 86.3616 69.5964C84.0688 68.1206 81.6774 66.6445 79.32 65.346C82.0408 66.3355 84.6964 67.4961 87.2708 68.8206C91.7206 70.9881 96.2 73.1459 100.427 75.6824C105.981 79.0126 111.352 82.6405 116.514 86.5504C116.343 86.0077 116.158 85.4453 115.952 84.873C110.793 81.0522 105.504 77.5365 100.081 74.2866Z" fill="#84C2AB"/>
</g>
<path d="M69.8906 111.482C69.8906 111.482 56.3159 143.819 93.3233 159.76C93.3233 159.76 109.007 126.078 69.8906 111.482Z" fill="#85B8A7"/>
<path d="M93.3233 159.759C93.3233 159.759 109.007 126.078 69.8906 111.482L93.3233 159.759Z" fill="#AED7C9"/>
<g style="mix-blend-mode:multiply">
<path d="M87.1332 133.753C84.5188 129.264 81.4304 125.08 78.4258 120.852C76.2664 117.549 73.6306 114.583 70.6038 112.051C70.4908 111.907 70.3631 111.769 70.255 111.616C70.147 111.463 69.9991 111.487 69.8711 111.422C69.7431 111.358 69.6282 111.905 69.3693 112.811C76.4999 125.189 80.7748 139.003 81.8816 153.243C82.2505 153.515 82.6096 153.782 82.9834 154.045C82.0564 141.447 78.7394 129.14 73.2096 117.781C74.3429 119.672 75.4217 121.597 76.4908 123.518C79.6094 129.21 82.4367 135.064 85.116 140.966C87.6975 146.622 90.116 152.357 92.3125 158.164L92.8557 159.536C93.0231 159.62 93.1806 159.7 93.3578 159.789C93.3578 159.789 93.5016 159.504 93.7003 158.962L93.4802 158.37C91.215 152.454 88.8112 146.715 86.2398 141.014C83.4822 134.899 80.547 128.868 77.3501 122.963C76.0803 120.584 74.707 118.165 73.2349 115.844C75.1371 118.024 76.9034 120.319 78.524 122.716C81.4107 126.786 84.2433 130.791 86.7498 135.077C90.0083 140.675 92.9602 146.446 95.5924 152.364C95.7123 151.807 95.8125 151.241 95.9129 150.625C93.2628 144.836 90.3068 139.164 87.1332 133.753Z" fill="#84C2AB"/>
</g>
<path d="M52.7229 3.33271C52.7229 3.33271 83.7849 -18.098 110.589 4.69551C110.589 4.69551 85.8545 28.3391 52.7229 3.33271Z" fill="#AEDDCD"/>
<path d="M110.589 4.69552C110.589 4.69552 85.8545 28.3391 52.7229 3.33271L110.589 4.69552Z" fill="#84C4AC"/>
<g style="mix-blend-mode:multiply">
<path d="M100.093 6.71367C93.7384 7.07832 87.3538 7.50202 81.0198 7.45768C73.8396 7.34208 66.6881 6.52087 59.6683 5.00592C66.5652 7.36353 73.6709 9.05899 80.889 10.0693C87.3584 11.0456 94.2521 11.8654 100.82 10.9544C99.8086 11.4194 98.7278 11.8744 97.5682 12.2897C92.2863 12.4376 87.0022 12.0812 81.7878 11.2254C72.0167 10.0328 62.4604 7.4782 53.3973 3.63603C53.3973 3.63603 53.3973 3.63603 53.3481 3.61124C53.2989 3.58644 53.151 3.58598 53.0426 3.58071L52.7179 3.34313C52.7179 3.34313 53.113 3.0733 53.824 2.66645L53.9323 2.721C62.0781 3.50531 70.1821 1.72671 78.2012 0.287905C83.9222 -0.696509 89.5675 -2.07874 95.0959 -3.84872C95.6229 -3.6943 96.1596 -3.51028 96.6619 -3.33129C90.9899 -1.47538 85.2049 0.0161654 79.3424 1.13422C72.8123 2.43473 66.0601 3.83312 59.3903 3.9898C66.5309 5.5247 73.7999 6.38553 81.1013 6.56096C86.7943 6.65259 92.5233 6.23178 98.2126 5.91434C102.26 5.69529 106.317 5.53049 110.351 5.09454C110.069 5.33516 109.595 5.73781 108.943 6.24834C105.96 6.38692 103.012 6.53054 100.093 6.71367Z" fill="#84C2AB"/>
</g>
<path d="M14.9833 80.7005C13.8911 84.1747 13.8474 87.894 14.8577 91.3934C15.8681 94.8927 17.8876 98.0169 20.6638 100.375C23.44 102.734 26.8498 104.222 30.4669 104.654C34.0839 105.085 37.7478 104.442 41.0004 102.803C44.253 101.164 46.9501 98.6026 48.7544 95.4392C50.5588 92.2758 51.3903 88.6506 51.1452 85.0168C50.9 81.3829 49.589 77.9017 47.376 75.0084C45.163 72.115 42.1463 69.9378 38.7029 68.749C36.3605 67.9701 33.8873 67.6616 31.4255 67.8412C28.9637 68.0208 26.5618 68.6849 24.3577 69.7955C22.1536 70.9061 20.1908 72.4412 18.5821 74.3126C16.9733 76.184 15.7503 78.3549 14.9833 80.7005V80.7005Z" fill="#F59982"/>
<path d="M39.4904 72.5753C39.4904 72.5753 43.8599 95.7525 20.6554 96.5872C20.6554 96.5872 14.9517 81.3751 20.7567 75.1439C26.5616 68.9127 39.4904 72.5753 39.4904 72.5753Z" fill="#DF444A"/>
<path d="M38.7029 68.7486C42.1891 69.9758 45.2294 72.2161 47.434 75.1821C49.6387 78.1481 50.9071 81.7048 51.0767 85.3959C44.856 81.9907 34.9178 77.1201 27.2361 76.076C27.2361 76.076 28.9739 92.227 27.3354 104.913C27.0103 104.823 26.6803 104.743 26.3553 104.629C21.6839 102.923 17.8682 99.4525 15.7288 94.9638C13.5894 90.475 13.2972 85.3265 14.9151 80.6254C16.5329 75.9244 19.9315 72.0463 24.38 69.8253C28.8284 67.6043 33.9715 67.2177 38.7029 68.7486Z" fill="#FBCAA9"/>
<path d="M27.4561 88.6738C27.471 82.2553 26.5274 75.8704 24.6567 69.73C24.9528 69.5831 25.2786 69.4511 25.5796 69.3189C26.2496 71.3064 26.7855 73.3366 27.1838 75.3957C35.265 78.097 43.068 81.5219 50.951 84.5675C50.9894 84.9324 51.0179 85.3169 51.0365 85.6964C43.1387 82.6557 35.375 79.2506 27.3531 76.5298C27.9504 79.9985 28.3125 83.5035 28.4369 87.0209C28.6481 91.6574 28.6034 96.3019 28.3032 100.933C28.2211 102.334 28.0624 103.728 27.8278 105.111C27.5027 105.022 27.1776 104.932 26.8575 104.832C27.0232 103.793 27.1198 102.743 27.1968 101.709C27.545 97.3729 27.6316 93.0201 27.4561 88.6738Z" fill="#AA333C"/>
<path d="M67.518 43.5948C57.9001 38.7498 46.5687 41.8392 42.206 50.4997C37.8433 59.1602 42.1051 70.1047 51.723 74.9496C61.3408 79.7946 72.6772 76.6954 77.0349 68.0448C81.3927 59.3942 77.1358 48.4398 67.518 43.5948Z" fill="#C0474E"/>
<path d="M48.5308 69.1589C48.5308 69.1589 43.6559 50.2679 48.4663 47.0399C53.2767 43.812 60.8906 49.597 60.8906 49.597C63.1191 53.5475 64.7135 57.8232 65.6158 62.2679C65.6158 62.2679 53.8683 71.1814 48.5308 69.1589Z" fill="#FAA892"/>
<path d="M78.7133 62.1162C70.3428 56.1164 60.9349 51.7161 50.9644 49.1371C50.4832 58.7658 53.8907 70.2793 56.1301 76.5897C54.621 76.2058 53.1569 75.6627 51.7625 74.9695C42.1447 70.1245 37.8877 59.1701 42.2455 50.5195C46.6033 41.8689 57.9003 38.7498 67.5181 43.5948C75.0293 47.3786 79.2419 54.8681 78.7133 62.1162Z" fill="#E39799"/>
<path d="M58.7865 51.0539C62.7665 52.4832 66.6407 54.1916 70.3802 56.1662C73.348 57.7723 75.791 60.1258 78.6894 61.845C78.6686 62.2293 78.6478 62.6137 78.5776 63.0225C75.787 61.5058 73.4224 59.3151 70.7261 57.6113C67.3594 55.6462 63.8139 54.0047 60.1373 52.7091C57.1437 51.5219 54.0905 50.5021 51.0423 49.4478C51.2817 58.7731 54.3565 67.6883 56.5043 76.7042C56.1398 76.6193 55.7555 76.5491 55.4009 76.4445C53.2039 67.4038 50.203 58.4642 50.028 49.0602L49.0825 48.732C47.5511 48.195 46.0345 47.6284 44.5177 47.1358C44.7749 46.8458 45.0222 46.5509 45.299 46.2954C45.8505 46.4746 46.4168 46.6735 46.9683 46.8773C50.8978 48.2892 54.8571 49.6174 58.7865 51.0539Z" fill="#AA333C"/>
<path d="M66.045 94.6142C57.4554 100.738 56.0286 113.469 62.8429 123.022C69.6573 132.574 82.1794 135.378 90.7592 129.249C99.339 123.12 100.776 110.395 93.9613 100.842C87.1469 91.2891 74.6101 88.4655 66.045 94.6142Z" fill="#DF444A"/>
<path d="M92.974 103.072C92.974 103.072 94.2956 118.285 69.3143 116.472L74.6336 97.4357L92.974 103.072Z" fill="#FDB396"/>
<path d="M93.9417 100.832C95.8347 103.462 97.1544 106.459 97.8154 109.631C91.061 105.934 83.969 102.89 76.6359 100.541C76.6359 100.541 69.0281 114.909 71.8026 130.521C68.2186 128.836 65.1319 126.253 62.8431 123.021C56.0191 113.414 57.426 100.723 66.0452 94.6141C74.6643 88.505 87.1028 91.2543 93.9417 100.832Z" fill="#F59982"/>
<path d="M72.2328 111.168C73.291 107.415 74.684 103.764 76.395 100.26C77.9257 97.3443 79.8309 94.6413 82.0621 92.2195C82.4167 92.3241 82.7664 92.4385 83.1209 92.5678C81.0174 94.9185 79.1754 97.4906 77.6273 100.239C81.946 101.57 86.1579 103.226 90.2271 105.192C92.5507 106.239 95.1454 107.287 97.5669 108.581C97.679 109.02 97.7664 109.459 97.8291 109.947C95.2208 108.485 92.3356 107.327 89.7806 106.176C85.6899 104.176 81.4451 102.509 77.0873 101.189C75.3817 104.713 74.016 108.392 73.0087 112.176C71.3251 118.262 71.6616 124.651 72.4126 130.878C72.0582 130.699 71.7038 130.521 71.3396 130.337C70.6582 123.898 70.4992 117.476 72.2328 111.168Z" fill="#A5342B"/>
<path d="M88.6278 39.2249C89.9382 37.0947 91.6665 35.2519 93.7086 33.8078C95.7507 32.3636 98.0642 31.3479 100.51 30.8219C102.955 30.2959 105.482 30.2705 107.938 30.7472C110.394 31.2239 112.727 32.1929 114.799 33.5956C116.87 34.9984 118.636 36.806 119.99 38.9094C121.344 41.0128 122.258 43.3685 122.677 45.8343C123.096 48.3002 123.011 50.8253 122.428 53.2573C121.844 55.6893 120.774 57.9779 119.282 59.9851C117.928 62.0221 116.183 63.7707 114.149 65.1298C112.115 66.4889 109.832 67.4317 107.431 67.9037C105.03 68.3756 102.56 68.3675 100.162 67.8798C97.7641 67.392 95.4866 66.4342 93.4608 65.0618C91.435 63.6893 89.7011 61.9293 88.3591 59.8834C87.0172 57.8375 86.0937 55.5462 85.6421 53.1418C85.1904 50.7374 85.2196 48.2674 85.7278 45.8745C86.2361 43.4816 87.2134 41.2132 88.6032 39.2001L88.6278 39.2249Z" fill="#F59982"/>
<path d="M96.8484 63.7006C96.8484 63.7006 117.976 53.2934 104.756 34.1596C104.756 34.1596 89.1764 38.7241 87.6685 47.1322C86.1606 55.5404 96.8484 63.7006 96.8484 63.7006Z" fill="#DF444A"/>
<path d="M93.3194 65.3157C96.3926 67.3724 100.011 68.4623 103.709 68.4448C107.407 68.4273 111.014 67.3033 114.067 65.2176C107.603 62.2946 97.7444 57.2665 92.2887 51.779C92.2887 51.779 106.208 43.4538 115.402 34.5373C115.137 34.3295 114.871 34.1217 114.596 33.9335C110.429 31.2781 105.391 30.3518 100.552 31.3513C95.7139 32.3509 91.4565 35.1976 88.6848 39.2865C85.913 43.3753 84.8455 48.384 85.7091 53.2482C86.5727 58.1124 89.2993 62.4486 93.3095 65.3353L93.3194 65.3157Z" fill="#FBCAA9"/>
<path d="M102.454 44.3886C97.3348 48.2594 91.6611 51.337 85.6242 53.5179C85.6873 53.8582 85.78 54.1886 85.8579 54.524C87.8472 53.857 89.7922 53.0647 91.6813 52.1518C98.6767 57.0084 106.108 61.1714 113.351 65.6344C113.672 65.4383 113.993 65.2421 114.299 65.0262C107.125 60.524 99.7384 56.371 92.7575 51.5835C95.8896 49.9671 98.9086 48.1406 101.794 46.1164C105.607 43.4985 109.275 40.6751 112.781 37.6589C113.848 36.7521 114.867 35.7913 115.835 34.7803C115.57 34.5725 115.299 34.3745 115.019 34.1716C114.297 34.9185 113.511 35.6208 112.711 36.3034C109.458 39.2023 106.033 41.9023 102.454 44.3886V44.3886Z" fill="#AA333C"/>
<path d="M62.1474 1.72609C51.3859 2.04253 42.8842 10.148 43.157 19.8233C43.4298 29.4987 52.389 37.1213 63.1456 36.8147C73.9021 36.5081 82.4137 28.4076 82.136 18.7174C81.8583 9.02725 72.9138 1.42444 62.1474 1.72609Z" fill="#C0474E"/>
<path d="M57.6006 33.2444C57.6006 33.2444 44.3326 18.9846 47.0241 13.8132C49.7156 8.64175 59.1803 10.1891 59.1803 10.1891C62.9999 12.6049 66.4148 15.6077 69.2991 19.0869C69.2991 19.0869 63.2616 32.4931 57.6006 33.2444Z" fill="#FAA892"/>
<path d="M80.7632 12.7202C70.5478 11.413 60.1791 12.009 50.1818 14.4782C54.3368 23.1849 62.8498 31.6932 67.776 36.1737C66.2634 36.5541 64.7143 36.7707 63.1554 36.8197C52.3988 37.1263 43.4446 29.5186 43.1669 19.8284C42.8892 10.1382 51.3859 2.04262 62.1573 1.73113C70.5476 1.49109 77.8247 6.08237 80.7632 12.7202Z" fill="#E39799"/>
<path d="M58.0105 12.4373C62.1976 11.7931 66.4256 11.4489 70.6619 11.4072C74.0336 11.4029 77.3434 12.3052 80.6752 12.4536C80.8319 12.804 81.0035 13.1495 81.1355 13.4999C77.9562 13.49 74.8334 12.6819 71.6646 12.4305C67.7708 12.311 63.8744 12.5496 60.0245 13.1434C56.8292 13.5327 53.6532 14.0797 50.4723 14.6119C55.1515 22.6943 62.0538 29.0833 68.2349 35.9974C67.8649 36.0948 67.4999 36.2071 67.125 36.2897C60.8747 29.4394 53.9824 23.0061 49.3378 14.8795L48.3416 15.044C46.7438 15.3002 45.1411 15.517 43.5679 15.7979C43.6577 15.4237 43.7425 15.0592 43.8471 14.7047C44.429 14.603 45.011 14.5013 45.6324 14.3702C49.7551 13.7571 53.878 13.0454 58.0105 12.4373Z" fill="#AA333C"/>
<path d="M24.3102 3.50602C24.3102 3.50602 40.4051 -27.5866 95.4245 -18.6626C95.4245 -18.6626 63.399 20.7292 24.3102 3.50602Z" fill="#89C3AD"/>
<path d="M95.4245 -18.6626C95.4245 -18.6626 63.399 20.7292 24.3102 3.50602L95.4245 -18.6626Z" fill="#679E8F"/>
<g style="mix-blend-mode:multiply">
<path d="M40.0448 1.67219C39.9834 1.68484 39.92 1.68425 39.8588 1.67046C39.7977 1.65668 39.7402 1.63 39.6901 1.59223L38.7774 1.8851C38.6994 1.91363 38.6155 1.92169 38.5335 1.90849C38.4515 1.89529 38.3743 1.86128 38.3093 1.80972C33.9789 2.66365 29.6326 3.35326 25.2703 3.87853C24.9553 3.71984 24.6403 3.56115 24.2512 3.45152C24.2512 3.45152 24.3454 3.26453 24.5189 2.92008C29.6702 2.29869 34.7925 1.44886 39.8859 0.370587C49.1868 -2.82861 57.4548 -8.53466 65.476 -14.0936C68.2161 -15.9765 70.8318 -18.0344 73.3066 -20.2544C73.8094 -20.2726 74.3073 -20.2809 74.8298 -20.2891C72.303 -17.9422 69.6366 -15.75 66.8452 -13.7246C60.3893 -9.06765 53.5093 -4.40211 46.1845 -0.984852C63.0884 -5.29695 79.5431 -11.2081 95.3259 -18.6384C95.1429 -18.4221 94.5939 -17.7733 93.6643 -16.7609C78.8813 -9.92828 63.5193 -4.42447 47.7599 -0.314611C55.0472 -0.93757 62.3772 -1.00841 69.5776 -2.29205C72.8589 -2.87654 76.1191 -3.54981 79.3582 -4.31186C78.6025 -3.79179 77.832 -3.26686 77.0419 -2.75183C75.2005 -2.36328 73.3674 -1.99113 71.5425 -1.63539C61.2 0.397455 50.5197 -0.108897 40.0448 1.67219Z" fill="#84C2AB"/>
</g>
<path d="M-5.04605 64.2312C-5.04605 64.2312 29.8004 92.8161 10.2496 130.916C10.2496 130.916 -24.6737 105.032 -5.04605 64.2312Z" fill="#A4CABD"/>
<path d="M-5.04605 64.2312C-5.04605 64.2312 29.8004 92.8161 10.2496 130.916L-5.04605 64.2312Z" fill="#AEDDCD"/>
<g style="mix-blend-mode:multiply">
<path d="M-5.85085 74.9431C-5.85204 73.647 -5.78921 72.3707 -5.70663 71.0797C-5.66583 70.6067 -5.5404 69.8432 -5.43947 69.0303C-5.50597 68.1578 -5.58726 67.2901 -5.65879 66.4521C-5.69568 66.3484 -5.69536 66.2351 -5.65787 66.1317C-5.66985 65.9858 -5.67436 65.8394 -5.6714 65.693C-5.44334 65.2403 -5.27932 64.7677 -5.05615 64.3002C-5.05615 64.3002 -4.85927 64.3994 -4.56444 64.7206L-4.55672 65.4649C-4.33061 66.0131 -4.20699 66.5982 -4.192 67.191C-0.430837 77.4144 6.1681 86.4391 9.69696 96.8786C12.0225 104.099 13.7212 111.506 14.7744 119.018C14.55 119.905 14.2961 120.801 14.0223 121.712C12.9059 113.416 11.1027 105.228 8.63123 97.2302C5.50407 87.6593 -0.382266 79.376 -4.2202 70.1381C-3.3403 79.5393 -1.04976 88.6394 1.29446 97.9269C4.07742 108.916 7.2254 119.818 10.3487 130.719L10.2496 130.916C10.2496 130.916 9.74787 130.54 8.907 129.833C5.91066 119.34 2.90935 108.858 0.204016 98.303C-1.86781 90.7059 -3.52894 83.0029 -4.77216 75.2274C-4.69989 80.0815 -4.36005 84.928 -3.75419 89.7448C-2.86205 98.6843 -2.44203 107.665 -2.49586 116.648C-2.86392 116.08 -3.2319 115.488 -3.58502 114.866C-3.60338 107.552 -3.82883 100.257 -4.51271 92.9656C-5.1017 86.956 -5.8091 80.9855 -5.85085 74.9431Z" fill="#84C2AB"/>
</g>
<path d="M-2.49994 31.3473C-2.49994 31.3473 28.5423 9.90664 55.3215 32.7001C55.3215 32.7001 30.671 56.3735 -2.49994 31.3473Z" fill="#AEDDCD"/>
<path d="M-6.17538 0.528092C-6.17538 0.528092 30.5134 -8.26134 47.259 22.662C47.259 22.662 15.725 35.8409 -6.17538 0.528092Z" fill="#AEDDCD"/>
<path d="M55.3215 32.7001C55.3215 32.7001 30.671 56.3735 -2.49994 31.3473L55.3215 32.7001Z" fill="#84C4AC"/>
<path d="M47.259 22.662C47.259 22.662 15.725 35.8409 -6.17538 0.528092L47.259 22.662Z" fill="#84C4AC"/>
<g style="mix-blend-mode:multiply">
<path d="M44.8707 34.7273C38.5108 35.1018 32.1262 35.5255 25.7922 35.4811C18.616 35.3588 11.4685 34.5393 4.45058 33.0343C11.351 35.3833 18.4578 37.0754 25.6763 38.0879C32.1357 39.0592 39.0294 39.879 45.6077 38.9729C44.5909 39.4478 43.5052 39.888 42.3554 40.3083C37.0735 40.4561 31.7894 40.0998 26.575 39.2439C16.8005 38.0496 7.241 35.4934 -1.82532 31.6496C-1.91392 31.605 -2.03723 31.6292 -2.13086 31.6191C-2.22448 31.6089 -2.36711 31.5001 -2.46534 31.3766C-2.56357 31.253 -2.07023 31.1067 -1.35924 30.6999C-1.32132 30.7142 -1.28502 30.7325 -1.25095 30.7544C6.90968 31.5338 15.0038 29.7503 23.0179 28.3213C28.7414 27.3367 34.3886 25.9512 39.9176 24.1749C40.4396 24.3391 40.9813 24.5133 41.4836 24.6923C35.7993 26.5191 30.0026 27.9761 24.1298 29.0542C17.5997 30.3547 10.8475 31.7531 4.11872 31.88C11.2594 33.4149 18.5283 34.2758 25.8297 34.4512C31.5276 34.5576 37.2566 34.1368 42.9459 33.8194C46.9837 33.5954 51.0557 33.4257 55.0793 32.9848C54.8075 33.2304 54.3331 33.633 53.6711 34.1386C50.7571 34.4104 47.809 34.5541 44.8707 34.7273Z" fill="#84C2AB"/>
</g>
<g style="mix-blend-mode:multiply">
<path d="M36.7812 20.7804C30.715 18.8339 24.6079 16.9243 18.717 14.5965C12.0688 11.8919 5.69909 8.54764 -0.302393 4.61079C5.28482 9.29234 11.3016 13.4357 17.6679 16.9857C23.3412 20.2232 29.4741 23.4762 35.9359 25.0058C34.8163 25.0817 33.6449 25.1003 32.421 25.0772C27.4418 23.3084 22.6426 21.0686 18.0887 18.3882C9.40439 13.746 1.4122 7.91137 -5.65529 1.054C-5.7218 0.980394 -5.84555 0.958499 -5.92921 0.915238C-6.01286 0.871976 -6.10657 0.71896 -6.15359 0.568313C-6.20061 0.417666 -5.68771 0.459298 -4.8778 0.336533C-4.84759 0.363562 -4.82034 0.393719 -4.7965 0.426494C2.53253 4.09919 10.7247 5.35768 18.7143 6.91802C24.4073 8.06585 30.1739 8.8122 35.9713 9.15155C36.3988 9.49318 36.8411 9.85116 37.2449 10.1994C31.2844 9.85107 25.3526 9.11735 19.4867 8.00284C12.9274 6.85843 6.12574 5.72513 -0.195206 3.41454C5.90991 7.42357 12.378 10.8503 19.1237 13.6495C24.3991 15.8056 29.8937 17.4812 35.314 19.2389C39.1603 20.4876 43.0191 21.7992 46.9305 22.8405C46.5884 22.9714 46.0006 23.1757 45.2008 23.4082C42.3851 22.6098 39.584 21.6795 36.7812 20.7804Z" fill="#84C2AB"/>
</g>
<path d="M-7.26565 28.7745C-7.26565 28.7745 -20.7715 61.1467 16.2706 77.0428C16.2706 77.0428 31.9048 43.3366 -7.26565 28.7745Z" fill="#85B8A7"/>
<path d="M16.2705 77.0428C16.2705 77.0428 31.9047 43.3367 -7.26574 28.7746L16.2705 77.0428Z" fill="#AED7C9"/>
<g style="mix-blend-mode:multiply">
<path d="M10.0508 51.0458C7.38227 46.5428 4.32824 42.3885 1.3237 38.1604C-0.844539 34.8623 -3.48685 31.9015 -6.51811 29.3733C-6.62611 29.2202 -6.75388 29.0818 -6.86188 28.9287C-6.96988 28.7755 -7.11783 28.7997 -7.2458 28.7353C-7.37378 28.6708 -7.48873 29.2175 -7.74277 30.1383C-0.583884 42.4857 3.7154 56.2802 4.83874 70.5068C5.20765 70.779 5.56672 71.0462 5.95043 71.3136C4.99004 58.7169 1.63427 46.4186 -3.93682 35.0786C-2.7888 36.9648 -1.70991 38.8903 -0.650701 40.8058C2.48272 46.4931 5.31004 52.347 8.00415 58.2448C10.5856 63.9008 13.0091 69.6254 15.2105 75.4477C15.3768 75.9017 15.5579 76.3507 15.7537 76.8195C15.921 76.9038 16.0785 76.9832 16.2557 77.0724C16.2557 77.0724 16.3995 76.787 16.5982 76.2455L16.3781 75.6534C14.1867 69.7867 11.7288 64.0325 9.1475 58.3272C6.38498 52.2222 3.44477 46.2004 0.257812 40.2763C-1.01201 37.8969 -2.40494 35.4678 -3.88199 33.1567C-1.96942 35.3303 -0.197858 37.624 1.42184 40.0237C4.31349 44.0838 7.15598 48.0946 9.66745 52.3704C12.9269 57.9763 15.8787 63.7553 18.51 69.6819C18.6249 69.1352 18.7301 68.5589 18.8305 67.9432C16.1953 62.1243 13.2245 56.4573 10.0508 51.0458Z" fill="#84C2AB"/>
</g>
</g>
</svg>
